<svg width="140" height="140" viewBox="0 0 140 140" fill="none" xmlns="http://www.w3.org/2000/svg">
  <rect x="8" y="8" width="124" height="124" rx="36" fill="#F5EDFF" stroke="#A77BF9" stroke-width="2" />
  <g transform="translate(45 48)">
    <circle cx="0" cy="0" r="24" fill="#FFD166" />
    <circle cx="-8" cy="-6" r="4" fill="#3C2564" />
    <circle cx="8" cy="-6" r="4" fill="#3C2564" />
    <path d="M-10 6 Q0 18 10 6" stroke="#3C2564" stroke-width="4" stroke-linecap="round" />
    <path d="M-28 28 Q0 8 28 28" stroke="#F7A9FF" stroke-width="10" stroke-linecap="round" opacity="0.8" />
  </g>
  <g transform="translate(95 64)">
    <path d="M0 -24 C16 -24 26 -12 26 6 C26 26 14 40 0 40 C-14 40 -26 26 -26 6 C-26 -12 -16 -24 0 -24Z" fill="#9FF3F0" />
    <circle cx="-9" cy="-4" r="4" fill="#3C2564" />
    <circle cx="9" cy="-4" r="4" fill="#3C2564" />
    <path d="M-10 12 Q0 20 10 12" stroke="#3C2564" stroke-width="4" stroke-linecap="round" />
    <path d="M-30 28 Q0 4 30 28" stroke="#A77BF9" stroke-width="10" stroke-linecap="round" opacity="0.8" />
  </g>
  <circle cx="46" cy="38" r="6" fill="#F7A9FF" opacity="0.6" />
  <circle cx="96" cy="36" r="5" fill="#FFD166" opacity="0.5" />
  <circle cx="110" cy="96" r="7" fill="#9FF3F0" opacity="0.5" />
</svg>
